<svg xmlns="http://www.w3.org/2000/svg" viewBox="0 0 1200 675" role="img" aria-labelledby="title desc"><title id="title">Mapa visual sanitizado do CarreiraPessoal</title><desc id="desc">Visão editorial do produto com navegação Hoje, Oportunidades, Candidaturas, Perfil, Fontes e Recursos. Não é uma captura de tela.</desc><rect width="1200" height="675" fill="#f5f5f2"/><rect x="26" y="26" width="1148" height="623" rx="20" fill="#fff" stroke="#121313" stroke-width="3"/><rect x="26" y="26" width="1148" height="72" rx="20" fill="#121313"/><rect x="26" y="78" width="1148" height="20" fill="#121313"/><circle cx="70" cy="62" r="18" fill="#ffdc52" stroke="#fff" stroke-width="2"/><text x="70" y="68" text-anchor="middle" font-family="Arial,sans-serif" font-size="14" font-weight="800" fill="#121313">CP</text><text x="103" y="57" font-family="Arial,sans-serif" font-size="20" font-weight="800" fill="#fff">CarreiraPessoal</text><text x="103" y="78" font-family="Arial,sans-serif" font-size="12" font-weight="700" letter-spacing="2" fill="#c2c5bd">WINDOWS · LOCAL-FIRST · v12.5.2</text><rect x="904" y="44" width="238" height="36" rx="18" fill="#9fc2ff"/><text x="1023" y="67" text-anchor="middle" font-family="Arial,sans-serif" font-size="12" font-weight="800" fill="#121313">IA OPCIONAL · DECISÃO HUMANA</text><rect x="48" y="120" width="210" height="505" rx="14" fill="#ecece8"/><text x="72" y="155" font-family="Arial,sans-serif" font-size="12" font-weight="800" fill="#5d605a" letter-spacing="1.5">NAVEGAÇÃO</text><g font-family="Arial,sans-serif" font-size="17" font-weight="700" fill="#292a28"><rect x="62" y="174" width="182" height="44" rx="9" fill="#121313"/><text x="84" y="202" fill="#fff">Hoje</text><text x="84" y="249">Oportunidades</text><text x="84" y="298">Candidaturas</text><text x="84" y="347">Perfil</text><text x="84" y="396">Fontes</text><text x="84" y="445">Recursos</text></g><line x1="72" y1="480" x2="232" y2="480" stroke="#b9bbb5"/><text x="72" y="510" font-family="Arial,sans-serif" font-size="11" font-weight="800" fill="#5d605a" letter-spacing="1.3">PRINCÍPIOS</text><text x="72" y="541" font-family="Arial,sans-serif" font-size="14" fill="#292a28">Sem auto-submit</text><text x="72" y="568" font-family="Arial,sans-serif" font-size="14" fill="#292a28">EvidenceGuard</text><text x="72" y="595" font-family="Arial,sans-serif" font-size="14" fill="#292a28">Perfil versionado</text><text x="292" y="151" font-family="Arial,sans-serif" font-size="13" font-weight="800" fill="#0759c7" letter-spacing="1.5">VISÃO DO PRODUTO</text><text x="292" y="190" font-family="Arial,sans-serif" font-size="32" font-weight="800" fill="#121313">Priorizar o que vale seu tempo.</text><text x="292" y="220" font-family="Arial,sans-serif" font-size="16" fill="#5d605a">Descoberta → deduplicação → direção de carreira → evidências → currículo → candidatura</text><rect x="292" y="255" width="250" height="126" rx="14" fill="#f5f5f2" stroke="#121313"/><text x="316" y="286" font-family="Arial,sans-serif" font-size="12" font-weight="800" fill="#5d605a" letter-spacing="1">QUALIDADE</text><text x="316" y="335" font-family="Arial,sans-serif" font-size="42" font-weight="800" fill="#121313">283</text><text x="316" y="361" font-family="Arial,sans-serif" font-size="14" font-weight="700" fill="#292a28">testes Python aprovados</text><rect x="565" y="255" width="250" height="126" rx="14" fill="#f5f5f2" stroke="#121313"/><text x="589" y="286" font-family="Arial,sans-serif" font-size="12" font-weight="800" fill="#5d605a" letter-spacing="1">COBERTURA</text><text x="589" y="335" font-family="Arial,sans-serif" font-size="42" font-weight="800" fill="#121313">102</text><text x="589" y="361" font-family="Arial,sans-serif" font-size="14" font-weight="700" fill="#292a28">famílias ATS/plataformas</text><rect x="838" y="255" width="304" height="126" rx="14" fill="#121313"/><text x="862" y="286" font-family="Arial,sans-serif" font-size="12" font-weight="800" fill="#c2c5bd" letter-spacing="1">FONTES</text><text x="862" y="335" font-family="Arial,sans-serif" font-size="42" font-weight="800" fill="#ffdc52">11</text><text x="862" y="361" font-family="Arial,sans-serif" font-size="14" font-weight="700" fill="#fff">coletores diretos</text><rect x="292" y="409" width="850" height="166" rx="14" fill="#eef4ff" stroke="#0759c7" stroke-width="2"/><text x="316" y="443" font-family="Arial,sans-serif" font-size="12" font-weight="800" fill="#0759c7" letter-spacing="1.2">FLUXO DE DECISÃO</text><g font-family="Arial,sans-serif" font-size="14" font-weight="700" fill="#121313"><rect x="316" y="468" width="125" height="44" rx="10" fill="#fff" stroke="#121313"/><text x="379" y="495" text-anchor="middle">Vaga</text><text x="455" y="495" font-size="22">→</text><rect x="480" y="468" width="145" height="44" rx="10" fill="#fff" stroke="#121313"/><text x="552" y="495" text-anchor="middle">Career Goal</text><text x="639" y="495" font-size="22">→</text><rect x="664" y="468" width="150" height="44" rx="10" fill="#fff" stroke="#121313"/><text x="739" y="495" text-anchor="middle">EvidenceGuard</text><text x="828" y="495" font-size="22">→</text><rect x="853" y="468" width="150" height="44" rx="10" fill="#fff" stroke="#121313"/><text x="928" y="495" text-anchor="middle">Resume Router</text><text x="1017" y="495" font-size="22">→</text><rect x="1042" y="468" width="76" height="44" rx="10" fill="#ffdc52" stroke="#121313"/><text x="1080" y="495" text-anchor="middle">Você</text></g><text x="316" y="548" font-family="Arial,sans-serif" font-size="13" fill="#5d605a">FastAPI · React/TypeScript · Tauri/Rust · SQLite/FTS5 · IA local/externa opcional</text><text x="292" y="613" font-family="Arial,sans-serif" font-size="12" font-weight="800" fill="#5d605a" letter-spacing="1.2">MAPA VISUAL SANITIZADO · NÃO É SCREENSHOT DA INTERFACE</text></svg>