<svg xmlns="http://www.w3.org/2000/svg" width="1440" height="900" viewBox="0 0 1440 900" role="img" aria-labelledby="title desc"><title id="title">Painel sanitizado de manutenção</title><desc id="desc">Reconstrução visual com indicadores, histórico e pendências fictícias.</desc><rect width="1440" height="900" fill="#0f172a"/><rect x="52" y="52" width="1336" height="796" rx="28" fill="#111827" stroke="#334155" stroke-width="4"/><rect x="88" y="92" width="1264" height="64" rx="14" fill="#1e293b"/><circle cx="126" cy="124" r="10" fill="#94a3b8"/><circle cx="158" cy="124" r="10" fill="#64748b"/><circle cx="190" cy="124" r="10" fill="#475569"/><rect x="92" y="196" width="280" height="600" rx="18" fill="#172033"/><rect x="412" y="196" width="940" height="160" rx="18" fill="#172033"/><rect x="412" y="388" width="292" height="180" rx="18" fill="#172033"/><rect x="732" y="388" width="292" height="180" rx="18" fill="#172033"/><rect x="1052" y="388" width="300" height="180" rx="18" fill="#172033"/><rect x="412" y="596" width="940" height="200" rx="18" fill="#172033"/><text x="412" y="265" font-family="Arial,sans-serif" font-size="46" font-weight="700" fill="#f8fafc">Painel de manutenção</text><text x="412" y="320" font-family="Arial,sans-serif" font-size="27" fill="#cbd5e1">Visão geral, histórico e pendências</text><text x="448" y="455" font-family="Arial,sans-serif" font-size="24" fill="#94a3b8">Equipamentos</text><text x="448" y="520" font-family="Arial,sans-serif" font-size="56" font-weight="700" fill="#e2e8f0">24</text><text x="768" y="455" font-family="Arial,sans-serif" font-size="24" fill="#94a3b8">Documentos</text><text x="768" y="520" font-family="Arial,sans-serif" font-size="56" font-weight="700" fill="#e2e8f0">86</text><text x="1088" y="455" font-family="Arial,sans-serif" font-size="24" fill="#94a3b8">Pendências</text><text x="1088" y="520" font-family="Arial,sans-serif" font-size="56" font-weight="700" fill="#e2e8f0">07</text><text x="448" y="675" font-family="Arial,sans-serif" font-size="28" font-weight="700" fill="#f8fafc">Atividade recente</text><line x1="448" y1="715" x2="1280" y2="715" stroke="#334155" stroke-width="3"/><line x1="448" y1="755" x2="1180" y2="755" stroke="#334155" stroke-width="3"/><text x="92" y="835" font-family="Arial,sans-serif" font-size="21" fill="#94a3b8">Reconstrução visual sanitizada · dados fictícios</text></svg>